<?xml version="1.0" encoding="UTF-8"?>
<svg width="20px" height="20px" viewBox="0 0 20 20" version="1.1" xmlns="http://www.w3.org/2000/svg" xmlns:xlink="http://www.w3.org/1999/xlink">
    <title>Combined Shape</title>
    <g id="Symbols" stroke="none" stroke-width="1" fill="none" fill-rule="evenodd">
        <g id="Menu-Search---Light-Gray" transform="translate(-2, -2)" fill="#9B9B9B">
            <path d="M17.8170441,15.2556881 L21.4271756,18.7559099 C22.1747225,19.4807022 22.1955426,20.6734944 21.4737458,21.423934 C20.7556695,22.1705053 19.568338,22.1936052 18.8217667,21.475529 L15.2116352,17.9753071 C14.4640883,17.2505148 14.4432682,16.0577227 15.165065,15.3072831 C15.8831413,14.5607117 17.0704727,14.5376118 17.8170441,15.2556881 Z M9.72560226,2 C13.9923346,2 17.4512045,5.47293569 17.4512045,9.75701898 C17.4512045,14.0411023 13.9923346,17.514038 9.72560226,17.514038 C5.45886995,17.514038 2,14.0411023 2,9.75701898 C2,5.47293569 5.45886995,2 9.72560226,2 Z M9.72560226,4.93508826 C7.0733092,4.93508826 4.92320086,7.09394018 4.92320086,9.75701898 C4.92320086,12.4200978 7.0733092,14.5789497 9.72560226,14.5789497 C12.3778953,14.5789497 14.5280037,12.4200978 14.5280037,9.75701898 C14.5280037,7.09394018 12.3778953,4.93508826 9.72560226,4.93508826 Z" id="Combined-Shape"></path>
        </g>
    </g>
</svg>